<svg xmlns="http://www.w3.org/2000/svg" viewBox="0 0 2907 630"><defs><style>.cls-1{fill:none;}.cls-2{fill:#f2f2f2;}.cls-3{fill:#ccc;}</style></defs><title>Asset 3</title><g id="Layer_2" data-name="Layer 2"><g id="Layer_1-2" data-name="Layer 1"><rect class="cls-1" width="2907" height="630"/><path class="cls-2" d="M2117.18,311.36A146.82,146.82,0,1,0,2264,458.18,146.82,146.82,0,0,0,2117.18,311.36Zm-.31,270.86a123.74,123.74,0,1,1,123.74-123.73A123.74,123.74,0,0,1,2116.87,582.22Z"/><rect class="cls-2" x="1970.36" y="171" width="22.78" height="292.41" rx="11.39" ry="11.39"/><path class="cls-3" d="M2058.24,415.84h14.64c8,0,12.36,4.26,12.36,10.32,0,5-3,8.22-6.48,9.18a10.62,10.62,0,0,1,8,10.38c0,8.4-6.3,12.12-13.62,12.12h-14.88Zm13.56,18.06c7.26,0,10-2.7,10-7.56,0-4.14-2.88-7.5-8.76-7.5h-11.64V433.9Zm-10.38,20.94h11.82c5.52,0,10.14-2.76,10.14-8.94,0-5.34-3.42-9-11.88-9h-10.08Z"/><path class="cls-3" d="M2115.48,452.14a34.29,34.29,0,0,0,.42,5.7H2113a19.71,19.71,0,0,1-.54-4.62c-1,2.22-3.66,5.34-9.84,5.34-7,0-10-4.5-10-9,0-6.6,5.1-9.6,14.1-9.6h5.7V436.9c0-3-.9-7-7.74-7-6.06,0-7,3.18-7.62,5.64h-3c.36-3.3,2.4-8.4,10.68-8.4,6.84,0,10.68,2.88,10.68,9.48Zm-2.94-9.6h-5.88c-6.66,0-10.8,1.74-10.8,6.9,0,3.78,2.7,6.36,6.9,6.36,8.58,0,9.78-5.7,9.78-12.18Z"/><path class="cls-3" d="M2148.54,413.62V449.2c0,2.88,0,5.64.06,8.64h-2.88c-.12-.72-.18-3.54-.18-5-1.5,3.66-4.86,5.76-10.08,5.76-7.8,0-12.48-6.36-12.48-15.36,0-9.24,5.1-16.08,13.26-16.08,6,0,8.4,2.58,9.3,4.5v-18Zm-22.38,29.46c0,8.22,4.26,12.66,9.42,12.66,7.92,0,10.08-5.46,10.08-13.62,0-7.74-1.86-12.18-9.54-12.18C2130.18,429.94,2126.16,434.68,2126.16,443.08Z"/><path class="cls-3" d="M2178.54,452.14a34.29,34.29,0,0,0,.42,5.7h-2.88a19.71,19.71,0,0,1-.54-4.62c-1,2.22-3.66,5.34-9.84,5.34-7,0-10-4.5-10-9,0-6.6,5.1-9.6,14.1-9.6h5.7V436.9c0-3-.9-7-7.74-7-6.06,0-7,3.18-7.62,5.64h-3c.36-3.3,2.4-8.4,10.68-8.4,6.84,0,10.68,2.88,10.68,9.48Zm-2.94-9.6h-5.88c-6.66,0-10.8,1.74-10.8,6.9,0,3.78,2.7,6.36,6.9,6.36,8.58,0,9.78-5.7,9.78-12.18Z"/><path class="cls-3" d="M2188.44,435.4c0-2.64,0-5.16-.06-7.56h2.94c.12,1,.18,4.86.12,5.7,1.32-3.06,3.78-6.42,10-6.42,5.34,0,10.08,3,10.08,11.28v19.44h-3v-19c0-5.34-2.22-8.82-7.44-8.82-7.14,0-9.6,5.94-9.6,12.48v15.3h-3Z"/><path class="cls-3" d="M2262.54,437.2h-21.42v17.64h23.46l-.49,3h-26.21v-42h25.74v3h-22.5V434.2h21.42Z"/><path class="cls-3" d="M2274.18,443.32c2.76-2.94,11.15-11.46,15.17-15.48h3.84l-11.87,11.94,13.37,18.06H2291l-11.81-16.14-5,4.8v11.34h-3V413.62h3Z"/><path class="cls-3" d="M2300.51,449.56c1,3.9,3.78,6.24,8.52,6.24,5.34,0,7.5-2.46,7.5-5.82s-1.44-5.1-8.16-6.72c-7.74-1.86-9.66-4.2-9.66-8.16,0-4.14,3.12-8,9.9-8s10,4.14,10.5,8.4h-3c-.54-2.52-2.52-5.64-7.62-5.64s-6.72,2.58-6.72,5c0,2.76,1.44,4.14,7.38,5.58,8.46,2,10.56,4.8,10.56,9.3,0,5.46-4.44,8.82-10.74,8.82-6.84,0-10.68-3.6-11.51-9Z"/><path class="cls-3" d="M2327.81,443.2c.06,7.74,4,12.54,9.72,12.54s7.56-3.18,8.64-5.64h3.06c-1.26,4-4.44,8.46-11.82,8.46-9.12,0-12.66-7.86-12.66-15.48,0-8.58,4.26-16,13-16,9.24,0,12.18,8,12.18,13.62,0,.84,0,1.68-.06,2.46Zm19-2.64c-.06-5.94-3.3-10.62-9.18-10.62-6.18,0-9,4.32-9.66,10.62Z"/><path class="cls-3" d="M2360.51,443.32c2.76-2.94,11.16-11.46,15.18-15.48h3.84l-11.88,11.94L2381,457.84h-3.72l-11.82-16.14-5,4.8v11.34h-3V413.62h3Z"/><path class="cls-3" d="M2406.71,449.08c0,2.94.06,7.62.06,8.76h-2.88a48.22,48.22,0,0,1-.18-5.22c-1.26,3.54-4.32,5.94-9.66,5.94-4.32,0-9.84-1.68-9.84-10.86V427.84h2.94V447c0,4.38,1.38,8.64,7.32,8.64,6.72,0,9.24-3.78,9.24-12.36V427.84h3Z"/><path class="cls-3" d="M2412.77,427.84h5.58v-9.36h3v9.36h7.14v2.82h-7.14v19.5c0,3.36.72,5.28,3.6,5.28a11.34,11.34,0,0,0,3.12-.36v2.64a10.54,10.54,0,0,1-3.72.54c-3.84,0-6-1.92-6-6.72V430.66h-5.58Z"/><path class="cls-3" d="M2434.61,413.62h3v5.82h-3Zm0,14.22h3v30h-3Z"/><path class="cls-3" d="M2449,457.84V430.66h-5.16v-2.82H2449v-4.26c0-5,1.44-10.56,8.16-10.56a11.21,11.21,0,0,1,2.94.42v2.88a14.9,14.9,0,0,0-3.24-.36c-3.54,0-4.86,2.52-4.86,7.74v4.14h6.54v2.82H2452v27.18Z"/><path class="cls-3" d="M2516.15,438.52c0-8.22.06-16.08.24-20.28h-.18c-1.68,5.64-10.2,26.34-15.54,39.6h-3.18c-4-10.26-12.84-33.3-14.76-39.66h-.12c.3,4.8.42,14.58.42,21.78v17.88h-3.24v-42h4.86c5.76,14.4,13,33.24,14.58,38h.12c1-3.06,9.36-24,15.24-38h4.8v42h-3.24Z"/><path class="cls-3" d="M2549.93,452.14a34.29,34.29,0,0,0,.42,5.7h-2.88a19.71,19.71,0,0,1-.54-4.62c-1,2.22-3.66,5.34-9.84,5.34-7,0-10-4.5-10-9,0-6.6,5.1-9.6,14.1-9.6h5.7V436.9c0-3-.9-7-7.74-7-6.06,0-7,3.18-7.62,5.64h-3c.36-3.3,2.4-8.4,10.68-8.4,6.84,0,10.68,2.88,10.68,9.48Zm-2.94-9.6h-5.88c-6.66,0-10.8,1.74-10.8,6.9,0,3.78,2.7,6.36,6.9,6.36,8.58,0,9.78-5.7,9.78-12.18Z"/><path class="cls-3" d="M2562.83,413.62v19.26a10.46,10.46,0,0,1,9.9-5.76c4.26,0,10.14,2.16,10.14,11.64v19.08h-3V439.36c0-5.94-2.7-9.3-7.68-9.3-5.94,0-9.36,3.66-9.36,11v16.74h-3V413.62Z"/><path class="cls-3" d="M2612.93,452.14a34.29,34.29,0,0,0,.42,5.7h-2.88a19.71,19.71,0,0,1-.54-4.62c-1,2.22-3.66,5.34-9.84,5.34-7,0-10-4.5-10-9,0-6.6,5.1-9.6,14.1-9.6h5.7V436.9c0-3-.9-7-7.74-7-6.06,0-7,3.18-7.62,5.64h-3c.36-3.3,2.4-8.4,10.68-8.4,6.84,0,10.68,2.88,10.68,9.48Zm-2.94-9.6h-5.88c-6.66,0-10.8,1.74-10.8,6.9,0,3.78,2.7,6.36,6.9,6.36,8.58,0,9.78-5.7,9.78-12.18Z"/><path class="cls-3" d="M2622.53,449.56c1,3.9,3.78,6.24,8.52,6.24,5.34,0,7.5-2.46,7.5-5.82s-1.44-5.1-8.16-6.72c-7.74-1.86-9.66-4.2-9.66-8.16,0-4.14,3.12-8,9.9-8s10,4.14,10.5,8.4h-3c-.54-2.52-2.52-5.64-7.62-5.64s-6.72,2.58-6.72,5c0,2.76,1.44,4.14,7.38,5.58,8.46,2,10.56,4.8,10.56,9.3,0,5.46-4.44,8.82-10.74,8.82-6.84,0-10.68-3.6-11.52-9Z"/><path class="cls-3" d="M2649.17,413.62h3v5.82h-3Zm0,14.22h3v30h-3Z"/><path class="cls-3" d="M2661.71,449.56c1,3.9,3.78,6.24,8.52,6.24,5.34,0,7.5-2.46,7.5-5.82s-1.44-5.1-8.16-6.72c-7.74-1.86-9.66-4.2-9.66-8.16,0-4.14,3.12-8,9.9-8s10,4.14,10.5,8.4h-3c-.54-2.52-2.52-5.64-7.62-5.64s-6.72,2.58-6.72,5c0,2.76,1.44,4.14,7.38,5.58,8.46,2,10.56,4.8,10.56,9.3,0,5.46-4.44,8.82-10.74,8.82-6.84,0-10.68-3.6-11.52-9Z"/><path class="cls-3" d="M2688.17,427.84c4.44,15.48,7,24.36,7.5,27h.06c.48-2.4,3.48-11.82,8.16-27h3.24c5.58,18.54,7.26,23.88,7.8,26.22h.06c.84-3.3,2.22-7.8,7.74-26.22h3.18l-9.48,30h-3.3c-3.24-10.62-7.14-23.64-7.74-26.4h-.06c-.6,2.94-4,13.68-7.92,26.4h-3.6l-8.82-30Z"/><path class="cls-3" d="M2752.25,452.14a34.29,34.29,0,0,0,.42,5.7h-2.88a19.71,19.71,0,0,1-.54-4.62c-1,2.22-3.66,5.34-9.84,5.34-7,0-10-4.5-10-9,0-6.6,5.1-9.6,14.1-9.6h5.7V436.9c0-3-.9-7-7.74-7-6.06,0-7,3.18-7.62,5.64h-3c.36-3.3,2.4-8.4,10.68-8.4,6.84,0,10.68,2.88,10.68,9.48Zm-2.94-9.6h-5.88c-6.66,0-10.8,1.74-10.8,6.9,0,3.78,2.7,6.36,6.9,6.36,8.58,0,9.78-5.7,9.78-12.18Z"/><path class="cls-3" d="M2057.06,474.23h12c6.15,0,10.37,3.41,10.37,9.36s-4.17,9.61-10.7,9.61h-9v14.64h-2.64Zm2.64,16.57H2069c5.42,0,7.68-2.88,7.68-7.11,0-4.51-3-7.06-7.49-7.06h-9.46Z"/><path class="cls-3" d="M2103.86,495.79c0,6.67-3.69,12.62-10.84,12.62-6.48,0-10.52-5.33-10.52-12.57,0-6.87,3.79-12.58,10.76-12.58C2099.64,483.26,2103.86,488.25,2103.86,495.79Zm-18.81,0c0,5.71,3.07,10.32,8.16,10.32s8.11-4.28,8.11-10.32c0-5.67-2.88-10.33-8.21-10.33S2085.05,490.08,2085.05,495.84Z"/><path class="cls-3" d="M2109.81,507.84V472.46h2.4v35.38Z"/><path class="cls-3" d="M2120.09,472.46h2.4v4.65h-2.4Zm0,11.37h2.4v24h-2.4Z"/><path class="cls-3" d="M2127.09,483.83h4.47v-7.48h2.4v7.48h5.71v2.26H2134v15.6c0,2.69.57,4.23,2.88,4.23a9,9,0,0,0,2.49-.29v2.11a8.28,8.28,0,0,1-3,.43c-3.08,0-4.8-1.53-4.8-5.37V486.09h-4.47Z"/><path class="cls-3" d="M2144.8,496.12c0,6.2,3.17,10,7.78,10s6.05-2.55,6.91-4.52h2.45c-1,3.17-3.55,6.77-9.45,6.77-7.3,0-10.13-6.29-10.13-12.38,0-6.87,3.4-12.77,10.41-12.77,7.4,0,9.75,6.38,9.75,10.9,0,.67,0,1.34-.05,2ZM2160,494c-.05-4.75-2.64-8.5-7.34-8.5-4.95,0-7.2,3.46-7.73,8.5Z"/><path class="cls-3" d="M2171,496.22c2.21-2.35,8.93-9.17,12.15-12.39h3.07l-9.5,9.56,10.7,14.45h-3L2175,494.92l-4,3.84v9.08h-2.4V472.46h2.4Z"/><path class="cls-3" d="M2190.88,489.88c0-2.11,0-4.13,0-6.05h2.35c.09.77.14,3.89.09,4.57,1.06-2.45,3-5.14,8-5.14,4.27,0,8.07,2.4,8.07,9v15.56h-2.4V492.67c0-4.27-1.78-7.06-6-7.06-5.71,0-7.68,4.75-7.68,10v12.24h-2.4Z"/><path class="cls-3" d="M2217.19,472.46h2.4v4.65h-2.4Zm0,11.37h2.4v24h-2.4Z"/><path class="cls-3" d="M2229.86,496.22c2.21-2.35,8.93-9.17,12.14-12.39h3.08l-9.51,9.56,10.71,14.45h-3l-9.46-12.92-4,3.84v9.08h-2.4V472.46h2.4Z"/><path class="cls-3" d="M2263.22,474.23h2.59v31.21h18.05l-.48,2.4h-20.16Z"/><path class="cls-3" d="M2289,474.23h12c6.15,0,10.37,3.41,10.37,9.36s-4.17,9.61-10.7,9.61h-9v14.64H2289Zm2.64,16.57H2301c5.42,0,7.68-2.88,7.68-7.11,0-4.51-3-7.06-7.49-7.06h-9.46Z"/><path class="cls-3" d="M2317.46,483.35c.53-3.88,3.31-7.68,9.26-7.68s8.84,3.89,8.84,7.92a6.6,6.6,0,0,1-4.42,6.63v.1c3.36,1,5.86,3.6,5.86,8.2,0,5.33-3.36,9.89-10.37,9.89-6.44,0-9.65-4.17-10.23-8.4h2.5a7.69,7.69,0,0,0,7.92,6.1c5.42,0,7.54-3.65,7.54-7.49,0-5-3.32-7.06-8-7.06h-1.88v-2.2H2326c4.8,0,7-2,7-5.77,0-3.31-2.3-5.61-6.33-5.61-4.18,0-6,2.21-6.77,5.37Z"/><path class="cls-3" d="M2347.17,474.23v33.61h-2.59V474.23Z"/><path class="cls-3" d="M2376.35,498.67c0,7.49-3.31,9.65-7.77,9.65a13.49,13.49,0,0,1-2.88-.29v-2.35a16.84,16.84,0,0,0,3,.24c4.52,0,5.09-3.51,5.09-7.3V474.23h2.59Z"/><path class="cls-3" d="M2400.35,503.28a27.8,27.8,0,0,0,.34,4.56h-2.3a15.07,15.07,0,0,1-.43-3.7c-.82,1.78-2.93,4.27-7.88,4.27-5.57,0-8-3.6-8-7.2,0-5.28,4.08-7.68,11.28-7.68H2398v-2.45c0-2.4-.73-5.61-6.2-5.61-4.85,0-5.57,2.54-6.09,4.51h-2.4c.28-2.64,1.92-6.72,8.54-6.72,5.47,0,8.54,2.3,8.54,7.58ZM2398,495.6h-4.7c-5.33,0-8.64,1.39-8.64,5.52,0,3,2.16,5.09,5.52,5.09,6.86,0,7.82-4.57,7.82-9.75Z"/><path class="cls-3" d="M2410.67,496.22c2.21-2.35,8.93-9.17,12.15-12.39h3.07l-9.5,9.56,10.7,14.45h-3l-9.45-12.92-4,3.84v9.08h-2.4V472.46h2.4Z"/><path class="cls-3" d="M2448,503.28a26.7,26.7,0,0,0,.34,4.56H2446a16.2,16.2,0,0,1-.43-3.7c-.82,1.78-2.93,4.27-7.87,4.27-5.57,0-8-3.6-8-7.2,0-5.28,4.08-7.68,11.28-7.68h4.56v-2.45c0-2.4-.72-5.61-6.19-5.61-4.85,0-5.57,2.54-6.1,4.51h-2.4c.29-2.64,1.92-6.72,8.55-6.72,5.47,0,8.54,2.3,8.54,7.58Zm-2.35-7.68h-4.71c-5.33,0-8.64,1.39-8.64,5.52,0,3,2.16,5.09,5.52,5.09,6.87,0,7.83-4.57,7.83-9.75Z"/><path class="cls-3" d="M2455.89,490.36c0-4,0-5.76,0-6.53h2.35c0,.77.1,2.31.1,5.38a9.08,9.08,0,0,1,8.35-5.95v2.59c-5,.34-8.35,3.79-8.35,9.51v12.48h-2.4Z"/><path class="cls-3" d="M2469.33,483.83h4.46v-7.48h2.4v7.48h5.71v2.26h-5.71v15.6c0,2.69.58,4.23,2.88,4.23a9.11,9.11,0,0,0,2.5-.29v2.11a8.37,8.37,0,0,1-3,.43c-3.07,0-4.8-1.53-4.8-5.37V486.09h-4.46Z"/><path class="cls-3" d="M2503.26,503.28a27.8,27.8,0,0,0,.34,4.56h-2.3a15.41,15.41,0,0,1-.44-3.7c-.81,1.78-2.92,4.27-7.87,4.27-5.57,0-8-3.6-8-7.2,0-5.28,4.08-7.68,11.28-7.68h4.56v-2.45c0-2.4-.72-5.61-6.19-5.61-4.85,0-5.57,2.54-6.09,4.51h-2.41c.29-2.64,1.92-6.72,8.55-6.72,5.47,0,8.54,2.3,8.54,7.58Zm-2.35-7.68h-4.7c-5.33,0-8.64,1.39-8.64,5.52,0,3,2.16,5.09,5.52,5.09,6.86,0,7.82-4.57,7.82-9.75Z"/></g></g></svg>